v 0.640889 0.167852 0.503555
v 0.824000 0.091556 -0.106815
v 0.427259 0.259407 -0.686666
v -0.335704 0.549333 -0.824000
v -0.915555 0.778222 -0.106815
v -0.412000 0.579852 0.824000
v 0.473037 0.244148 0.396741
v -0.381481 0.564592 0.686666
v -0.686666 0.686666 -0.061037
v -0.274667 0.518815 -0.717185
v 0.381481 0.274667 -0.595111
v 0.518815 0.213630 -0.076296
v 0.595111 0.076296 0.503555
v 0.793481 -0.000000 -0.106815
v 0.396741 0.152593 -0.686666
v -0.381481 0.457778 -0.824000
v -0.946074 0.671407 -0.106815
v -0.442518 0.488296 0.824000
v 0.427259 0.137333 0.396741
v -0.412000 0.473037 0.686666
v -0.732444 0.595111 -0.061037
v -0.305185 0.427259 -0.717185
v 0.335704 0.167852 -0.595111
v 0.488296 0.122074 -0.076296
v 0.640889 1.342814 0.503555
v 0.839259 1.403851 -0.106815
v 0.442518 1.281777 -0.686666
v -0.350963 1.052889 -0.824000
v -0.946074 0.869778 -0.106815
v -0.427259 1.022370 0.824000
v 0.473037 1.297037 0.396741
v -0.396741 1.037629 0.686666
v -0.717185 0.946074 -0.061037
v -0.274667 1.068148 -0.717185
v 0.381481 1.266518 -0.595111
v 0.534074 1.312296 -0.076296
v 0.671407 1.251259 0.503555
v 0.869778 1.312296 -0.106815
v 0.473037 1.190222 -0.686666
v -0.320444 0.946074 -0.824000
v -0.915555 0.778222 -0.106815
v -0.396741 0.930815 0.824000
v 0.503555 1.190222 0.396741
v -0.366222 0.930815 0.686666
v -0.686666 0.839259 -0.061037
v -0.259407 0.976592 -0.717185
v 0.412000 1.174963 -0.595111
v 0.564592 1.205481 -0.076296
v 0.686666 1.586962 0.503555
v 0.885037 1.510666 -0.106815
v 0.488296 1.663259 -0.686666
v -0.274667 1.953185 -0.824000
v -0.854518 2.182073 -0.106815
v -0.350963 1.983703 0.824000
v 0.534074 1.648000 0.396741
v -0.320444 1.968444 0.686666
v -0.640889 2.090518 -0.061037
v -0.213630 1.937925 -0.717185
v 0.442518 1.678518 -0.595111
v 0.579852 1.617481 -0.076296
v 0.656148 1.480148 0.503555
v 0.839259 1.403851 -0.106815
v 0.442518 1.556444 -0.686666
v -0.320444 1.861629 -0.824000
v -0.900296 2.075259 -0.106815
v -0.396741 1.892148 0.824000
v 0.488296 1.541185 0.396741
v -0.366222 1.876888 0.686666
v -0.671407 1.998962 -0.061037
v -0.244148 1.831111 -0.717185
v 0.396741 1.586962 -0.595111
v 0.534074 1.525926 -0.076296
v 0.717185 2.700888 0.503555
v 0.915555 2.761925 -0.106815
v 0.518815 2.655110 -0.686666
v -0.289926 2.441481 -0.824000
v -0.885037 2.288888 -0.106815
v -0.366222 2.426222 0.824000
v 0.549333 2.655110 0.396741
v -0.335704 2.426222 0.686666
v -0.656148 2.349925 -0.061037
v -0.213630 2.456740 -0.717185
v 0.457778 2.639851 -0.595111
v 0.610370 2.670370 -0.076296
v 0.747703 2.609333 0.503555
v 0.946074 2.655110 -0.106815
v 0.534074 2.548295 -0.686666
v -0.259407 2.334666 -0.824000
v -0.854518 2.182073 -0.106815
v -0.335704 2.319407 0.824000
v 0.579852 2.563555 0.396741
v -0.305185 2.319407 0.686666
v -0.625629 2.243110 -0.061037
v -0.183111 2.349925 -0.717185
v 0.488296 2.533036 -0.595111
v 0.640889 2.578814 -0.076296
vn 22.659994 -0.000000 58.259834
vn 22.659994 -0.000000 58.259834
vn 22.659994 -0.000000 58.259834
vn 22.659994 -0.000000 58.259834
vn 22.659994 -0.000000 58.259834
vn 22.659994 -0.000000 58.259834
vn 22.659994 -0.000000 58.259834
vn 22.659994 -0.000000 58.259834
vn 22.659994 -0.000000 58.259834
vn 22.659994 -0.000000 58.259834
vn 22.659994 -0.000000 58.259834
vn 22.659994 -0.000000 58.259834
vn 55.085911 20.310068 -21.423994
vn 55.085911 20.310068 -21.423994
vn 47.090061 -36.790062 -18.311106
vn 47.090061 -36.790062 -18.311106
vn 9.964293 -61.586353 -3.875851
vn 9.964293 -61.586353 -3.875851
vn -44.480728 -40.360729 17.288736
vn -44.480728 -40.360729 17.288736
vn -50.492874 31.174658 19.638660
vn -50.492874 31.174658 19.638660
vn 16.418959 59.968872 -6.393628
vn 16.418959 59.968872 -6.393628
vn -18.051699 -59.419537 7.019257
vn -18.051699 -59.419537 7.019257
vn 53.163242 -25.559252 -20.676291
vn 53.163242 -25.559252 -20.676291
vn 48.173466 35.142063 -18.738365
vn 48.173466 35.142063 -18.738365
vn -10.238960 61.525314 3.982666
vn -10.238960 61.525314 3.982666
vn -55.879391 17.654957 21.729179
vn -55.879391 17.654957 21.729179
vn -57.847836 -7.354961 22.492142
vn -57.847836 -7.354961 22.492142
vn -22.659994 -0.000000 -58.259834
vn -22.659994 -0.000000 -58.259834
vn -22.659994 -0.000000 -58.259834
vn -22.659994 -0.000000 -58.259834
vn -22.659994 -0.000000 -58.259834
vn -22.659994 -0.000000 -58.259834
vn -22.659994 -0.000000 -58.259834
vn -22.659994 -0.000000 -58.259834
vn -22.659994 -0.000000 -58.259834
vn -22.659994 -0.000000 -58.259834
vn -22.659994 -0.000000 -58.259834
vn -22.659994 -0.000000 -58.259834
vn -17.746513 -0.000000 59.923092
vn -17.746513 -0.000000 59.923092
vn -17.746513 -0.000000 59.923092
vn -17.746513 -0.000000 59.923092
vn -17.746513 -0.000000 59.923092
vn -17.746513 -0.000000 59.923092
vn -17.746513 -0.000000 59.923092
vn -17.746513 -0.000000 59.923092
vn -17.746513 -0.000000 59.923092
vn -17.746513 -0.000000 59.923092
vn -17.746513 -0.000000 59.923092
vn -17.746513 -0.000000 59.923092
vn 56.672871 20.310068 16.785181
vn 56.672871 20.310068 16.785181
vn 48.448135 -36.790062 14.343699
vn 48.448135 -36.790062 14.343699
vn 10.238960 -61.586353 3.036592
vn 10.238960 -61.586353 3.036592
vn -45.747246 -40.360729 -13.550219
vn -45.747246 -40.360729 -13.550219
vn -51.942505 31.174658 -15.381329
vn -51.942505 31.174658 -15.381329
vn 16.891994 59.968872 5.005035
vn 16.891994 59.968872 5.005035
vn -18.585772 -59.419537 -5.508591
vn -18.585772 -59.419537 -5.508591
vn 54.689171 -25.559252 16.205328
vn 54.689171 -25.559252 16.205328
vn 49.562057 35.142063 14.679403
vn 49.562057 35.142063 14.679403
vn -10.544145 61.525314 -3.128147
vn -10.544145 61.525314 -3.128147
vn -57.481613 17.654957 -17.029327
vn -57.481613 17.654957 -17.029327
vn -59.511093 -7.354961 -17.624439
vn -59.511093 -7.354961 -17.624439
vn 17.746513 -0.000000 -59.923092
vn 17.746513 -0.000000 -59.923092
vn 17.746513 -0.000000 -59.923092
vn 17.746513 -0.000000 -59.923092
vn 17.746513 -0.000000 -59.923092
vn 17.746513 -0.000000 -59.923092
vn 17.746513 -0.000000 -59.923092
vn 17.746513 -0.000000 -59.923092
vn 17.746513 -0.000000 -59.923092
vn 17.746513 -0.000000 -59.923092
vn 17.746513 -0.000000 -59.923092
vn 17.746513 -0.000000 -59.923092
vn 22.659994 -0.000000 58.259834
vn 22.659994 -0.000000 58.259834
vn 22.659994 -0.000000 58.259834
vn 22.659994 -0.000000 58.259834
vn 22.659994 -0.000000 58.259834
vn 22.659994 -0.000000 58.259834
vn 22.659994 -0.000000 58.259834
vn 22.659994 -0.000000 58.259834
vn 22.659994 -0.000000 58.259834
vn 22.659994 -0.000000 58.259834
vn 22.659994 -0.000000 58.259834
vn 22.659994 -0.000000 58.259834
vn 55.085911 20.310068 -21.423994
vn 55.085911 20.310068 -21.423994
vn 47.090061 -36.790062 -18.311106
vn 47.090061 -36.790062 -18.311106
vn 9.964293 -61.586353 -3.875851
vn 9.964293 -61.586353 -3.875851
vn -44.480728 -40.360729 17.288736
vn -44.480728 -40.360729 17.288736
vn -50.492874 31.174658 19.638660
vn -50.492874 31.174658 19.638660
vn 16.418959 59.968872 -6.393628
vn 16.418959 59.968872 -6.393628
vn -18.051699 -59.419537 7.019257
vn -18.051699 -59.419537 7.019257
vn 53.163242 -25.559252 -20.676291
vn 53.163242 -25.559252 -20.676291
vn 48.173466 35.142063 -18.738365
vn 48.173466 35.142063 -18.738365
vn -10.238960 61.525314 3.982666
vn -10.238960 61.525314 3.982666
vn -55.879391 17.654957 21.729179
vn -55.879391 17.654957 21.729179
vn -57.847836 -7.354961 22.492142
vn -57.847836 -7.354961 22.492142
vn -22.659994 -0.000000 -58.259834
vn -22.659994 -0.000000 -58.259834
vn -22.659994 -0.000000 -58.259834
vn -22.659994 -0.000000 -58.259834
vn -22.659994 -0.000000 -58.259834
vn -22.659994 -0.000000 -58.259834
vn -22.659994 -0.000000 -58.259834
vn -22.659994 -0.000000 -58.259834
vn -22.659994 -0.000000 -58.259834
vn -22.659994 -0.000000 -58.259834
vn -22.659994 -0.000000 -58.259834
vn -22.659994 -0.000000 -58.259834
vn -15.915402 -0.000000 60.441910
vn -15.915402 -0.000000 60.441910
vn -15.915402 -0.000000 60.441910
vn -15.915402 -0.000000 60.441910
vn -15.915402 -0.000000 60.441910
vn -15.915402 -0.000000 60.441910
vn -15.915402 -0.000000 60.441910
vn -15.915402 -0.000000 60.441910
vn -15.915402 -0.000000 60.441910
vn -15.915402 -0.000000 60.441910
vn -15.915402 -0.000000 60.441910
vn -15.915402 -0.000000 60.441910
vn 57.161167 20.310068 15.045625
vn 57.161167 20.310068 15.045625
vn 48.860134 -36.790062 12.863552
vn 48.860134 -36.790062 12.863552
vn 10.330516 -61.586353 2.716147
vn 10.330516 -61.586353 2.716147
vn -46.143986 -40.360729 -12.146367
vn -46.143986 -40.360729 -12.146367
vn -52.385021 31.174658 -13.794366
vn -52.385021 31.174658 -13.794366
vn 17.044588 59.968872 4.486221
vn 17.044588 59.968872 4.486221
vn -18.738365 -59.419537 -4.928739
vn -18.738365 -59.419537 -4.928739
vn 55.162205 -25.559252 14.526811
vn 55.162205 -25.559252 14.526811
vn 49.989319 35.142063 13.153478
vn 49.989319 35.142063 13.153478
vn -10.620441 61.525314 -2.792444
vn -10.620441 61.525314 -2.792444
vn -57.985168 17.654957 -15.259254
vn -57.985168 17.654957 -15.259254
vn -60.014648 -7.354961 -15.808588
vn -60.014648 -7.354961 -15.808588
vn 15.915402 -0.000000 -60.441910
vn 15.915402 -0.000000 -60.441910
vn 15.915402 -0.000000 -60.441910
vn 15.915402 -0.000000 -60.441910
vn 15.915402 -0.000000 -60.441910
vn 15.915402 -0.000000 -60.441910
vn 15.915402 -0.000000 -60.441910
vn 15.915402 -0.000000 -60.441910
vn 15.915402 -0.000000 -60.441910
vn 15.915402 -0.000000 -60.441910
vn 15.915402 -0.000000 -60.441910
vn 15.915402 -0.000000 -60.441910
f 7//1 6//1 1//1
f 8//2 6//2 7//2
f 8//3 5//3 6//3
f 9//4 5//4 8//4
f 9//5 4//5 5//5
f 10//6 4//6 9//6
f 10//7 3//7 4//7
f 11//8 3//8 10//8
f 11//9 2//9 3//9
f 12//10 2//10 11//10
f 12//11 1//11 2//11
f 7//12 1//12 12//12
f 1//13 14//13 2//13
f 1//14 13//14 14//14
f 2//15 15//15 3//15
f 2//16 14//16 15//16
f 3//17 16//17 4//17
f 3//18 15//18 16//18
f 4//19 17//19 5//19
f 4//20 16//20 17//20
f 5//21 18//21 6//21
f 5//22 17//22 18//22
f 6//23 13//23 1//23
f 6//24 18//24 13//24
f 7//25 20//25 8//25
f 7//26 19//26 20//26
f 8//27 21//27 9//27
f 8//28 20//28 21//28
f 9//29 22//29 10//29
f 9//30 21//30 22//30
f 10//31 23//31 11//31
f 10//32 22//32 23//32
f 11//33 24//33 12//33
f 11//34 23//34 24//34
f 12//35 19//35 7//35
f 12//36 24//36 19//36
f 18//37 19//37 13//37
f 18//38 20//38 19//38
f 17//39 20//39 18//39
f 17//40 21//40 20//40
f 16//41 21//41 17//41
f 16//42 22//42 21//42
f 15//43 22//43 16//43
f 15//44 23//44 22//44
f 14//45 23//45 15//45
f 14//46 24//46 23//46
f 13//47 24//47 14//47
f 13//48 19//48 24//48
f 31//49 30//49 25//49
f 32//50 30//50 31//50
f 32//51 29//51 30//51
f 33//52 29//52 32//52
f 33//53 28//53 29//53
f 34//54 28//54 33//54
f 34//55 27//55 28//55
f 35//56 27//56 34//56
f 35//57 26//57 27//57
f 36//58 26//58 35//58
f 36//59 25//59 26//59
f 31//60 25//60 36//60
f 25//61 38//61 26//61
f 25//62 37//62 38//62
f 26//63 39//63 27//63
f 26//64 38//64 39//64
f 27//65 40//65 28//65
f 27//66 39//66 40//66
f 28//67 41//67 29//67
f 28//68 40//68 41//68
f 29//69 42//69 30//69
f 29//70 41//70 42//70
f 30//71 37//71 25//71
f 30//72 42//72 37//72
f 31//73 44//73 32//73
f 31//74 43//74 44//74
f 32//75 45//75 33//75
f 32//76 44//76 45//76
f 33//77 46//77 34//77
f 33//78 45//78 46//78
f 34//79 47//79 35//79
f 34//80 46//80 47//80
f 35//81 48//81 36//81
f 35//82 47//82 48//82
f 36//83 43//83 31//83
f 36//84 48//84 43//84
f 42//85 43//85 37//85
f 42//86 44//86 43//86
f 41//87 44//87 42//87
f 41//88 45//88 44//88
f 40//89 45//89 41//89
f 40//90 46//90 45//90
f 39//91 46//91 40//91
f 39//92 47//92 46//92
f 38//93 47//93 39//93
f 38//94 48//94 47//94
f 37//95 48//95 38//95
f 37//96 43//96 48//96
f 55//97 54//97 49//97
f 56//98 54//98 55//98
f 56//99 53//99 54//99
f 57//100 53//100 56//100
f 57//101 52//101 53//101
f 58//102 52//102 57//102
f 58//103 51//103 52//103
f 59//104 51//104 58//104
f 59//105 50//105 51//105
f 60//106 50//106 59//106
f 60//107 49//107 50//107
f 55//108 49//108 60//108
f 49//109 62//109 50//109
f 49//110 61//110 62//110
f 50//111 63//111 51//111
f 50//112 62//112 63//112
f 51//113 64//113 52//113
f 51//114 63//114 64//114
f 52//115 65//115 53//115
f 52//116 64//116 65//116
f 53//117 66//117 54//117
f 53//118 65//118 66//118
f 54//119 61//119 49//119
f 54//120 66//120 61//120
f 55//121 68//121 56//121
f 55//122 67//122 68//122
f 56//123 69//123 57//123
f 56//124 68//124 69//124
f 57//125 70//125 58//125
f 57//126 69//126 70//126
f 58//127 71//127 59//127
f 58//128 70//128 71//128
f 59//129 72//129 60//129
f 59//130 71//130 72//130
f 60//131 67//131 55//131
f 60//132 72//132 67//132
f 66//133 67//133 61//133
f 66//134 68//134 67//134
f 65//135 68//135 66//135
f 65//136 69//136 68//136
f 64//137 69//137 65//137
f 64//138 70//138 69//138
f 63//139 70//139 64//139
f 63//140 71//140 70//140
f 62//141 71//141 63//141
f 62//142 72//142 71//142
f 61//143 72//143 62//143
f 61//144 67//144 72//144
f 79//145 78//145 73//145
f 80//146 78//146 79//146
f 80//147 77//147 78//147
f 81//148 77//148 80//148
f 81//149 76//149 77//149
f 82//150 76//150 81//150
f 82//151 75//151 76//151
f 83//152 75//152 82//152
f 83//153 74//153 75//153
f 84//154 74//154 83//154
f 84//155 73//155 74//155
f 79//156 73//156 84//156
f 73//157 86//157 74//157
f 73//158 85//158 86//158
f 74//159 87//159 75//159
f 74//160 86//160 87//160
f 75//161 88//161 76//161
f 75//162 87//162 88//162
f 76//163 89//163 77//163
f 76//164 88//164 89//164
f 77//165 90//165 78//165
f 77//166 89//166 90//166
f 78//167 85//167 73//167
f 78//168 90//168 85//168
f 79//169 92//169 80//169
f 79//170 91//170 92//170
f 80//171 93//171 81//171
f 80//172 92//172 93//172
f 81//173 94//173 82//173
f 81//174 93//174 94//174
f 82//175 95//175 83//175
f 82//176 94//176 95//176
f 83//177 96//177 84//177
f 83//178 95//178 96//178
f 84//179 91//179 79//179
f 84//180 96//180 91//180
f 90//181 91//181 85//181
f 90//182 92//182 91//182
f 89//183 92//183 90//183
f 89//184 93//184 92//184
f 88//185 93//185 89//185
f 88//186 94//186 93//186
f 87//187 94//187 88//187
f 87//188 95//188 94//188
f 86//189 95//189 87//189
f 86//190 96//190 95//190
f 85//191 96//191 86//191
f 85//192 91//192 96//192
